<?xml version="1.0" encoding="utf-8"?>
<!-- Generator: Adobe Illustrator 16.0.0, SVG Export Plug-In . SVG Version: 6.00 Build 0)  -->
<!DOCTYPE svg PUBLIC "-//W3C//DTD SVG 1.1//EN" "http://www.w3.org/Graphics/SVG/1.1/DTD/svg11.dtd">
<svg version="1.1" id="Layer_1" xmlns="http://www.w3.org/2000/svg" xmlns:xlink="http://www.w3.org/1999/xlink" x="0px" y="0px"
	 width="31.875px" height="49.75px" viewBox="0 0 31.875 49.75" enable-background="new 0 0 31.875 49.75" xml:space="preserve">
<path id="Logo" fill="#9F19F7" d="M24.303,32.989l-4.441-8.825c0,0,8.813-10.164-1.769-15.372c-2.005-0.686-4.206-0.493-6.061,0.532
	c-6.493,4.537-3.24,9.319-2.742,10.591c3.477,7.163,11.038,20.937,11.038,20.937l-4.5,8.912c0,0-5.408-9.701-9.778-18.379
	c-3.628-6.557-5.428-10.737-5.766-12.511C-0.054,17.1-1.761,7.574,9.798,1.308c0.617-0.214,10.354-4.9,19.074,5.034
	c1.89,2.736,4.425,6.843,2.056,13.543L24.303,32.989z"/>
</svg>
