<svg width="400" height="272" viewBox="0 0 400 272" fill="none" xmlns="http://www.w3.org/2000/svg">
<rect width="400" height="272" fill="white"/>
<path d="M71.0149 210V204.377C71.0149 200.135 70.4907 198.896 68.8704 195.37L60.3875 176.879H54.3828L65.2485 200.517V210H71.0149ZM74.7798 192.891L81.8329 176.879H75.9712L68.918 192.891H74.7798ZM135.018 210.477C137.686 210.477 139.879 209.238 141.404 206.902L141.689 210H146.932V176.879H141.261V188.841C139.831 186.696 137.734 185.552 135.256 185.552C129.775 185.552 125.963 190.175 125.963 198.181C125.963 206.092 129.68 210.477 135.018 210.477ZM169.854 208.38V203.757C168.091 204.949 165.136 205.997 162.372 205.997C158.226 205.997 156.654 204.043 156.415 200.04H170.093V197.038C170.093 188.698 166.423 185.552 160.752 185.552C153.842 185.552 150.554 190.842 150.554 198.086C150.554 206.426 154.652 210.477 161.896 210.477C165.518 210.477 168.186 209.524 169.854 208.38ZM98.5127 193.654C98.5127 187.84 95.558 185.648 89.5533 185.648C85.8361 185.648 82.8337 187.22 81.1181 188.459V193.368C82.929 191.891 85.6931 190.175 88.8861 190.175C91.6025 190.175 92.8416 191.128 92.8416 193.702V195.227H91.9361C83.2626 195.227 79.4025 198.038 79.4025 203.042C79.4025 207.665 82.3572 210.334 86.7416 210.334C90.0775 210.334 91.5072 209.238 92.6033 208.094H92.8416C92.8892 208.713 93.0799 209.524 93.2705 210H98.7986C98.608 208.046 98.5127 206.092 98.5127 204.138V193.654ZM108.807 192.796C109.855 191.509 111.523 190.413 113.572 190.413C115.574 190.413 116.479 191.271 116.479 193.082V210H122.15V192.51C122.15 187.745 120.244 185.648 115.621 185.648C112.238 185.648 110.236 186.887 109.092 188.031H108.807L108.664 186.029H103.135V210H108.807V192.796ZM187.297 210H193.683L185.867 197.657L192.634 186.029H186.963L182.865 193.273L178.29 186.029H171.904L179.147 197.514L171.618 210H177.384L182.197 201.899L187.297 210ZM136.686 190.032C139.736 190.032 141.261 192.463 141.261 197.991C141.261 203.567 139.64 205.997 136.447 205.997C133.35 205.997 131.825 203.614 131.825 198.181C131.825 192.51 133.445 190.032 136.686 190.032ZM160.657 190.032C163.468 190.032 164.326 192.367 164.326 195.37V195.846H156.415C156.558 192.034 157.94 190.032 160.657 190.032ZM92.8416 204.281C92.1267 205.33 90.7924 206.188 88.7908 206.188C86.408 206.188 85.2165 204.806 85.2165 202.709C85.2165 199.945 87.1705 198.992 92.0314 198.992H92.8416V204.281Z" fill="black"/>
<path d="M219.868 210H224.824L231.592 184.981V210H237.263V176.879H229.542L222.87 201.422L216.198 176.879H208.383V210H213.101V184.981L219.868 210Z" fill="black"/>
<path d="M260.379 208.38V203.757C258.615 204.949 255.661 205.997 252.897 205.997C248.75 205.997 247.178 204.043 246.94 200.04H260.617V197.038C260.617 188.698 256.947 185.552 251.276 185.552C244.366 185.552 241.078 190.842 241.078 198.086C241.078 206.426 245.176 210.477 252.42 210.477C256.042 210.477 258.711 209.524 260.379 208.38ZM251.181 190.032C253.993 190.032 254.85 192.367 254.85 195.37V195.846H246.94C247.082 192.034 248.465 190.032 251.181 190.032Z" fill="black"/>
<path d="M262.51 186.029V190.509H265.512V202.804C265.512 207.284 268.038 210.477 273.281 210.477C276.045 210.477 277.617 209.857 277.617 209.857V205.235C277.617 205.235 276.569 205.997 274.663 205.997C272.28 205.997 271.184 204.615 271.184 202.852V190.509H277.141V186.029H271.184V180.787H265.512V186.029H262.51Z" fill="black"/>
<path d="M286.144 195.036C287.716 192.129 290.051 190.652 293.53 190.842V185.505C290.29 185.695 287.621 187.649 286.287 190.795H286.144L286.001 186.029H280.473V210H286.144V195.036Z" fill="black"/>
<path d="M299.433 183.074C301.292 183.074 302.769 181.788 302.769 179.738C302.769 177.737 301.292 176.402 299.433 176.402C297.575 176.402 296.145 177.737 296.145 179.738C296.145 181.788 297.575 183.074 299.433 183.074ZM296.622 186.029V210H302.293V186.029H296.622Z" fill="black"/>
<path d="M317.34 210.477C319.962 210.477 321.82 210 323.202 208.999V204.377C321.772 205.377 320.057 205.997 317.674 205.997C313.623 205.997 311.955 202.852 311.955 197.895C311.955 192.701 314.004 190.032 317.722 190.032C319.914 190.032 322.058 190.795 323.202 191.509V186.696C322.011 186.029 319.914 185.552 317.102 185.552C309.858 185.552 306.093 190.747 306.093 198.038C306.093 206.045 309.763 210.477 317.34 210.477Z" fill="black"/>
<path d="M344.698 193.654C344.698 187.84 341.743 185.648 335.739 185.648C331.974 185.648 329.019 186.839 327.304 187.84V192.558C328.829 191.414 332.165 190.175 335.072 190.175C337.788 190.175 339.027 191.128 339.027 193.702V195.036H338.122C329.448 195.036 325.588 197.895 325.588 202.756C325.588 207.617 328.543 210.334 332.927 210.334C336.263 210.334 337.693 209.238 338.789 208.094H339.027C339.075 208.713 339.265 209.524 339.456 210H344.984C344.794 208.046 344.698 206.092 344.698 204.138V193.654ZM339.027 204.281C338.312 205.33 336.978 206.188 334.976 206.188C332.593 206.188 331.402 204.758 331.402 202.613C331.402 199.802 333.356 198.801 338.217 198.801H339.027V204.281Z" fill="black"/>
<rect x="149" y="114.001" width="32" height="32" fill="#FF3333"/>
<rect x="184" y="86.0007" width="32" height="60" fill="#0077FF"/>
<rect x="219" y="50.0007" width="32" height="96" fill="#FFCC00"/>
</svg>
