<svg width="400" height="272" viewBox="0 0 400 272" fill="none" xmlns="http://www.w3.org/2000/svg">
<rect width="400" height="272" fill="white"/>
<path d="M67.729 209.961H73.4954V176.84H65.1079C56.6727 176.84 52.2407 181.177 52.2407 187.563C52.2407 192.662 54.6711 195.664 59.0079 198.762L51.4781 209.961H57.7211L66.1087 197.427L63.2016 195.474C59.6751 193.091 57.9594 191.232 57.9594 187.229C57.9594 183.702 60.4376 181.32 65.1556 181.32H67.729V209.961ZM143.455 208.341V203.718C141.692 204.91 138.737 205.958 135.973 205.958C131.827 205.958 130.254 204.004 130.016 200.001H143.693V196.999C143.693 188.659 140.024 185.513 134.353 185.513C127.443 185.513 124.154 190.803 124.154 198.047C124.154 206.387 128.253 210.438 135.497 210.438C139.118 210.438 141.787 209.485 143.455 208.341ZM178.912 210.438C181.533 210.438 183.391 209.961 184.773 208.96V204.338C183.344 205.338 181.628 205.958 179.245 205.958C175.194 205.958 173.526 202.813 173.526 197.856C173.526 192.662 175.576 189.993 179.293 189.993C181.485 189.993 183.63 190.756 184.773 191.47V186.657C183.582 185.99 181.485 185.513 178.673 185.513C171.429 185.513 167.665 190.708 167.665 197.999C167.665 206.006 171.334 210.438 178.912 210.438ZM91.5096 185.99V195.474H83.9322V185.99H78.2611V209.961H83.9322V199.953H91.5096V209.961H97.1807V185.99H91.5096ZM122.772 205.481H120.246V185.99H103.71V188.039C103.71 193.901 103.328 201.478 101.327 205.481H99.5635V215.442H104.806V209.961H117.53V215.442H122.772V205.481ZM161.565 209.961H167.998L158.896 197.046L166.902 185.99H161.183L153.177 197.046V185.99H147.506V209.961H153.177V198.19L161.565 209.961ZM134.257 189.993C137.069 189.993 137.927 192.328 137.927 195.331V195.807H130.016C130.159 191.995 131.541 189.993 134.257 189.993ZM114.575 205.481H106.569C108.142 201.859 108.571 195.331 108.571 191.184V190.47H114.575V205.481Z" fill="black"/>
<path d="M210.868 209.961H215.824L222.592 184.941V209.961H228.263V176.84H220.542L213.87 201.383L207.198 176.84H199.383V209.961H204.101V184.941L210.868 209.961Z" fill="black"/>
<path d="M251.379 208.341V203.718C249.615 204.91 246.661 205.958 243.897 205.958C239.75 205.958 238.178 204.004 237.94 200.001H251.617V196.999C251.617 188.659 247.947 185.513 242.276 185.513C235.366 185.513 232.078 190.803 232.078 198.047C232.078 206.387 236.176 210.438 243.42 210.438C247.042 210.438 249.711 209.485 251.379 208.341ZM242.181 189.993C244.993 189.993 245.85 192.328 245.85 195.331V195.807H237.94C238.082 191.995 239.465 189.993 242.181 189.993Z" fill="black"/>
<path d="M271.792 190.47V185.99H252.777V190.47H259.449V209.961H265.12V190.47H271.792Z" fill="black"/>
<path d="M280.391 185.99H275.149V216.871H280.82V207.149C282.25 209.294 284.347 210.438 286.777 210.438C292.305 210.438 296.118 206.006 296.118 197.952C296.118 189.945 292.401 185.513 287.063 185.513C284.395 185.513 282.202 186.752 280.677 189.088L280.391 185.99ZM285.348 205.958C282.345 205.958 280.82 203.527 280.82 197.999C280.82 192.424 282.441 189.993 285.634 189.993C288.731 189.993 290.256 192.424 290.256 197.952C290.256 203.527 288.636 205.958 285.348 205.958Z" fill="black"/>
<path d="M299.908 185.99V209.961H304.817L313.586 195.14V209.961H319.114V185.99H314.205L305.436 200.811V185.99H299.908Z" fill="black"/>
<path d="M337.935 209.961H344.368L335.266 197.046L343.272 185.99H337.553L329.547 197.046V185.99H323.876V209.961H329.547V198.19L337.935 209.961Z" fill="black"/>
<path d="M363.668 193.615C363.668 187.801 360.714 185.609 354.709 185.609C350.944 185.609 347.989 186.8 346.274 187.801V192.519C347.799 191.375 351.135 190.136 354.042 190.136C356.758 190.136 357.997 191.089 357.997 193.663V194.997H357.092C348.418 194.997 344.558 197.856 344.558 202.717C344.558 207.578 347.513 210.295 351.897 210.295C355.233 210.295 356.663 209.199 357.759 208.055H357.997C358.045 208.674 358.236 209.485 358.426 209.961H363.954C363.764 208.007 363.668 206.053 363.668 204.099V193.615ZM357.997 204.242C357.282 205.291 355.948 206.149 353.947 206.149C351.564 206.149 350.372 204.719 350.372 202.574C350.372 199.763 352.326 198.762 357.187 198.762H357.997V204.242Z" fill="black"/>
<rect x="149" y="114" width="32" height="32" fill="#FF3333"/>
<rect x="184" y="86.0005" width="32" height="60" fill="#0077FF"/>
<rect x="219" y="50.0005" width="32" height="96" fill="#FFCC00"/>
</svg>
